<svg width="50" height="50" viewBox="0 0 50 50" fill="none" xmlns="http://www.w3.org/2000/svg">
<g id="Group 15">
<circle id="Ellipse 3" cx="25" cy="25" r="23" fill="#F4E9CD"/>
<g id="Ellipse 4">
<mask id="path-2-inside-1_1_77" fill="white">
<path d="M25 0C29.388 -5.2326e-08 33.6987 1.15492 37.4989 3.34871C41.2991 5.5425 44.4549 8.69787 46.6493 12.4977C48.8437 16.2976 49.9993 20.6081 50 24.9961C50.0007 29.384 48.8464 33.6949 46.6533 37.4955L44.4879 36.2459C46.4618 32.8254 47.5006 28.9456 47.5 24.9965C47.4994 21.0473 46.4593 17.1678 44.4844 13.748C42.5094 10.3281 39.6692 7.48825 36.249 5.51384C32.8288 3.53943 28.9492 2.5 25 2.5V0Z"/>
</mask>
<path d="M25 0C29.388 -5.2326e-08 33.6987 1.15492 37.4989 3.34871C41.2991 5.5425 44.4549 8.69787 46.6493 12.4977C48.8437 16.2976 49.9993 20.6081 50 24.9961C50.0007 29.384 48.8464 33.6949 46.6533 37.4955L44.4879 36.2459C46.4618 32.8254 47.5006 28.9456 47.5 24.9965C47.4994 21.0473 46.4593 17.1678 44.4844 13.748C42.5094 10.3281 39.6692 7.48825 36.249 5.51384C32.8288 3.53943 28.9492 2.5 25 2.5V0Z" stroke="#C89104" stroke-width="3" mask="url(#path-2-inside-1_1_77)"/>
</g>
<path id="Vector" d="M34.3166 31.7714H12V34.4H38.2857V31.7714H34.3166ZM36.9714 30.4571C36.6166 25.108 32.7 20.7314 27.5611 19.6669C27.6926 19.3514 27.7714 18.9966 27.7714 18.6286C27.7714 17.1829 26.5886 16 25.1429 16C23.6971 16 22.5143 17.1829 22.5143 18.6286C22.5143 18.9966 22.5931 19.3514 22.7246 19.6669C17.5857 20.7314 13.6691 25.108 13.3143 30.4571H36.9714ZM25.1429 22.0194C29.02 22.0194 32.332 24.4246 33.6857 27.8154H16.6C17.9537 24.4246 21.2657 22.0194 25.1429 22.0194Z" fill="#C89104"/>
</g>
</svg>
