<svg width="50" height="50" viewBox="0 0 50 50" fill="none" xmlns="http://www.w3.org/2000/svg">
<g id="Group 15">
<g id="Ellipse 4">
<mask id="path-1-inside-1_1_66" fill="white">
<path d="M25 0C29.388 -5.2326e-08 33.6987 1.15492 37.4989 3.34871C41.2991 5.5425 44.4549 8.69787 46.6493 12.4977C48.8437 16.2976 49.9993 20.6081 50 24.9961C50.0007 29.384 48.8464 33.6949 46.6533 37.4955L44.4879 36.2459C46.4618 32.8254 47.5006 28.9456 47.5 24.9965C47.4994 21.0473 46.4593 17.1678 44.4844 13.748C42.5094 10.3281 39.6692 7.48825 36.249 5.51384C32.8288 3.53943 28.9492 2.5 25 2.5V0Z"/>
</mask>
<path d="M25 0C29.388 -5.2326e-08 33.6987 1.15492 37.4989 3.34871C41.2991 5.5425 44.4549 8.69787 46.6493 12.4977C48.8437 16.2976 49.9993 20.6081 50 24.9961C50.0007 29.384 48.8464 33.6949 46.6533 37.4955L44.4879 36.2459C46.4618 32.8254 47.5006 28.9456 47.5 24.9965C47.4994 21.0473 46.4593 17.1678 44.4844 13.748C42.5094 10.3281 39.6692 7.48825 36.249 5.51384C32.8288 3.53943 28.9492 2.5 25 2.5V0Z" stroke="#038A39" stroke-width="3" mask="url(#path-1-inside-1_1_66)"/>
</g>
<g id="Group 44">
<circle id="Ellipse 4_2" cx="25" cy="25" r="23" fill="#038A39" fill-opacity="0.2"/>
<g id="Group">
<path id="Union" fill-rule="evenodd" clip-rule="evenodd" d="M30.2391 16.0966C29.8248 15.8906 29.2665 15.7014 28.617 15.8574C28.2873 15.9366 27.9998 16.09 27.7462 16.2778C25.1556 15.6415 22.349 15.9915 20.1016 17.2277C17.6211 18.5922 15.8 21.0611 15.8 24.4162C15.8 26.9125 16.9322 29.2883 18.9579 30.9043V32.9849V34.1685L20.1414 34.1847L21.2349 34.1997L21.2349 34.1999H21.2514H21.9756V34.2L21.9926 34.1997L23.0495 34.1847L24.2324 34.1679V32.9849V32.9457C24.7339 32.9877 25.2326 32.9911 25.7216 32.9547V32.9849V34.1691L26.9057 34.1847L28.0422 34.1998L28.0422 34.1999H28.058H28.7821V34.2L28.7999 34.1997L29.8139 34.1847L30.9961 34.1672V32.9849V30.9009C32.0545 30.0496 32.9033 28.9697 33.4574 27.8089H34.2387H35.4052L35.4382 26.6428L35.5612 22.2934L35.5957 21.0705L34.3723 21.0596L33.4573 21.0514C32.9678 20.0362 32.2573 19.0914 31.4763 18.3176C31.4639 18.1949 31.4457 18.0573 31.4189 17.9131C31.3723 17.6627 31.2911 17.3434 31.1385 17.0348C30.9892 16.7327 30.7184 16.335 30.2391 16.0966ZM21.8324 31.5449V31.7999H21.3578V30.3001V29.667L20.8352 29.3096C19.1295 28.1431 18.2 26.3186 18.2 24.4162C18.2 22.047 19.4426 20.3294 21.2584 19.3305C23.1104 18.3117 25.5335 18.0677 27.6943 18.7549L28.4168 18.9847L28.9345 18.431C28.9787 18.3837 29.0177 18.3446 29.0516 18.3123L29.0594 18.352C29.0827 18.4772 29.0944 18.6044 29.0998 18.7041C29.1023 18.7525 29.1032 18.7908 29.1035 18.8147L29.1036 18.8385L29.1036 18.8395L29.1036 18.8407L29.1036 18.8408L29.0925 19.3857L29.5017 19.7531C30.4006 20.5602 31.1678 21.624 31.5238 22.6409L31.8024 23.4368L32.6457 23.4443L33.1276 23.4486L33.0722 25.4089H32.6564H31.8042L31.5234 26.2134C31.1199 27.3696 30.2636 28.519 29.1143 29.3127L28.5962 29.6705V30.3001V31.7999H28.1215V31.5449V29.9862L26.6146 30.3849C25.6439 30.6417 24.4912 30.6509 23.3031 30.3759L21.8324 30.0354V31.5449ZM28.9816 18.0881L28.9843 18.0928C28.9833 18.0911 28.9826 18.0898 28.9822 18.0891C28.9818 18.0884 28.9816 18.0881 28.9816 18.0881ZM28.1657 22.7796V22.7796C28.1657 22.8462 28.1447 22.9788 28.0293 23.1083C27.9004 23.253 27.7332 23.3037 27.619 23.3037C27.5156 23.3037 27.3856 23.2626 27.2785 23.1579C27.173 23.0546 27.1174 22.9154 27.1174 22.7796H27.619H28.1173L27.619 22.7794L27.1174 22.7793C27.1174 22.6437 27.173 22.5044 27.2787 22.4011C27.3858 22.2963 27.5158 22.2553 27.619 22.2553C27.7329 22.2553 27.9001 22.3059 28.0291 22.4506C28.1446 22.5802 28.1657 22.7129 28.1657 22.7796ZM27.619 21.3038C27.2122 21.3038 26.8183 21.4611 26.536 21.778C26.2671 22.0797 26.1658 22.4503 26.1658 22.7796C26.1658 23.1091 26.2672 23.4797 26.5362 23.7814C26.8187 24.0983 27.2125 24.2553 27.619 24.2553C28.4428 24.2553 29.1171 23.6156 29.1173 22.7799V22.7796C29.1173 21.9441 28.4432 21.3038 27.619 21.3038Z" fill="#038A39"/>
</g>
</g>
</g>
</svg>
